#!OML:ASF F:\VICON\USERDATA\INSTALL\rory3\rory3.ASF
:FULLY-SPECIFIED
:DEGREES
3404
root -8.48563 18.869 1.08388 -350.396 58.32 359.921
lowerback 9.56613 -1.55378 -2.08596
upperback 4.0842 -2.19475 -4.61993
thorax -1.21975 -1.02234 -3.38751
lowerneck -7.62543 11.2217 -4.42214
upperneck 28.3061 17.0029 1.20993
head 9.7623 7.65583 2.86047
rclavicle -2.06736e-014 5.88403e-014
rhumerus -12.2338 49.1499 -93.8098
rradius 118.521
rwrist -6.72372
rhand -43.5272 3.88492
rfingers 7.12502
rthumb -16.366 -25.4446
lclavicle -2.06736e-014 5.88403e-014
lhumerus -2.03635 -20.5991 86.0796
lradius 38.7752
lwrist -4.75532
lhand -28.3256 5.2987
lfingers 7.12502
lthumb -1.70037 35.2717
rfemur -19.9815 12.4098 18.5412
rtibia 24.1464
rfoot -16.609 -24.4112
rtoes 5.48437
lfemur -14.4075 -1.58631 -4.73485
ltibia 24.5438
lfoot -15.0983 12.429
ltoes -0.212314
3405
root -8.45357 18.866 1.0328 -350.527 58.5115 359.672
lowerback 9.65927 -1.56333 -1.97632
upperback 4.09644 -2.20096 -4.67035
thorax -1.26459 -1.02332 -3.49959
lowerneck -7.57299 11.189 -4.35188
upperneck 28.2077 16.9203 1.24456
head 9.7209 7.63335 2.8447
rclavicle 1.59028e-014 -9.54166e-015
rhumerus -12.3522 48.5344 -94.2391
rradius 118.304
rwrist -7.24225
rhand -43.1419 3.97969
rfingers 7.12502
rthumb -15.995 -25.38
lclavicle 1.59028e-014 -9.54166e-015
lhumerus -2.31331 -20.632 85.9461
lradius 38.7551
lwrist -4.61468
lhand -28.7171 5.1508
lfingers 7.12502
lthumb -2.07851 35.1204
rfemur -20.0009 12.5484 18.4499
rtibia 24.0941
rfoot -16.7551 -24.686
rtoes 5.46623
lfemur -14.3431 -1.83449 -4.65616
ltibia 23.9284
lfoot -15.4354 12.6333
ltoes -1.29616
3406
root -8.42102 18.863 0.979806 -350.552 58.6917 359.511
lowerback 9.69655 -1.56004 -2.03762
upperback 4.12056 -2.20069 -4.62281
thorax -1.25579 -1.02358 -3.41483
lowerneck -7.53903 11.1377 -4.42534
upperneck 28.063 16.8437 1.22956
head 9.65914 7.59625 2.83255
rclavicle -1.35174e-014 -3.33958e-014
rhumerus -12.3843 47.8615 -94.5366
rradius 118.008
rwrist -7.93899
rhand -42.8826 3.65025
rfingers 7.12502
rthumb -15.7453 -25.7293
lclavicle -1.35174e-014 -3.33958e-014
lhumerus -2.67856 -20.7244 85.9038
lradius 38.9454
lwrist -4.21432
lhand -28.7405 5.17431
lfingers 7.12502
lthumb -2.10108 35.1437
rfemur -20.0773 12.7975 18.2678
rtibia 24.0715
rfoot -17.007 -25.0382
rtoes 5.58294
lfemur -14.3687 -2.02593 -4.6604
ltibia 23.3785
lfoot -15.7709 12.7443
ltoes -2.45552
3407
root -8.3881 18.8586 0.923597 -350.636 58.866 359.208
lowerback 9.70488 -1.55604 -2.05789
upperback 4.12204 -2.19666 -4.48971
thorax -1.25294 -1.02346 -3.26442
lowerneck -7.5927 11.0739 -4.53557
upperneck 28.0418 16.7886 1.17032
head 9.65995 7.55336 2.82754
rclavicle -2.3059e-014 -4.77083e-015
rhumerus -12.4313 47.1913 -94.6934
rradius 117.691
rwrist -8.70788
rhand -42.8749 3.12903
rfingers 7.12502
rthumb -15.7379 -26.2511
lclavicle -2.3059e-014 -4.77083e-015
lhumerus -3.06482 -20.5591 86.0296
lradius 39.0887
lwrist -3.84892
lhand -28.3451 4.97535
lfingers 7.12502
lthumb -1.71922 34.9482
rfemur -20.2526 12.592 18.1982
rtibia 24.062
rfoot -16.9978 -24.996
rtoes 5.47029
lfemur -14.5139 -2.35423 -4.59279
ltibia 22.9074
lfoot -16.2349 12.8558
ltoes -3.79554
3408
root -8.35358 18.8508 0.865785 -350.776 59.0434 358.817
lowerback 9.66443 -1.56429 -2.04887
upperback 4.13408 -2.20358 -4.34649
thorax -1.21357 -1.02883 -3.12016
lowerneck -7.65882 11.0255 -4.52872
upperneck 28.0126 16.7653 1.00167
head 9.68153 7.52307 2.77471
rclavicle 7.87187e-014 6.83819e-014
rhumerus -12.4413 46.5837 -94.7666
rradius 117.36
rwrist -9.48417
rhand -42.7611 2.83196
rfingers 7.12502
rthumb -15.6283 -26.5568
lclavicle 7.87187e-014 6.83819e-014
lhumerus -3.37547 -20.3118 86.1182
lradius 39.1063
lwrist -3.42172
lhand -27.5321 5.24829
lfingers 7.12502
lthumb -0.934022 35.226
rfemur -20.4621 12.1626 18.2018
rtibia 24.0667
rfoot -16.8559 -24.7846
rtoes 5.19884
lfemur -14.7255 -2.56873 -4.5129
ltibia 22.5077
lfoot -16.4988 12.708
ltoes -4.75438
3409
root -8.31738 18.8413 0.8054 -350.924 59.2203 358.504
lowerback 9.67463 -1.54648 -2.06247
upperback 4.17071 -2.17801 -4.22759
thorax -1.17516 -1.01728 -2.99146
lowerneck -7.68197 10.9403 -4.58385
upperneck 27.9385 16.6653 0.931426
head 9.66448 7.46641 2.7493
rclavicle -1.04958e-013 -4.45278e-014
rhumerus -12.4375 45.9549 -94.8245
rradius 117.006
rwrist -10.2916
rhand -42.301 3.077
rfingers 7.12502
rthumb -15.1851 -26.3458
lclavicle -1.04958e-013 -4.45278e-014
lhumerus -3.65383 -20.0597 86.245
lradius 39.1277
lwrist -3.15052
lhand -26.3259 6.34462
lfingers 7.12502
lthumb 0.230971 36.3242
rfemur -20.6012 12.154 18.1035
rtibia 24.1327
rfoot -17.0226 -24.9032
rtoes 5.25405
lfemur -14.8779 -2.57452 -4.5447
ltibia 22.102
lfoot -16.2321 12.2188
ltoes -5.04272
3410
root -8.27644 18.8329 0.74161 -351.154 59.376 358.146
lowerback 9.6436 -1.52781 -2.10667
upperback 4.26738 -2.1476 -4.01134
thorax -1.04703 -1.00462 -2.74661
lowerneck -7.80963 10.8957 -5.03232
upperneck 27.9069 16.6262 1.12383
head 9.61861 7.42712 2.87764
rclavicle -1.19271e-014 1.43125e-014
rhumerus -12.2418 45.5473 -94.5792
rradius 116.634
rwrist -10.987
rhand -41.8747 3.56184
rfingers 7.12502
rthumb -14.7744 -25.8916
lclavicle -1.19271e-014 1.43125e-014
lhumerus -3.83954 -19.5526 86.5475
lradius 39.093
lwrist -3.32267
lhand -25.976 7.22509
lfingers 7.12502
lthumb 0.568953 37.2041
rfemur -20.7359 12.2215 18.0105
rtibia 24.3049
rfoot -17.1994 -25.0612
rtoes 5.18599
lfemur -14.9354 -2.58739 -4.61072
ltibia 21.619
lfoot -15.7152 11.7464
ltoes -5.42504
3411
root -8.23012 18.8275 0.670588 -350.656 59.5507 358.561
lowerback 9.49928 -1.53601 -2.54971
upperback 4.37594 -2.17918 -3.84349
thorax -0.832449 -1.0265 -2.32526
lowerneck -7.78 10.853 -5.43242
upperneck 27.7112 16.5995 1.1386
head 9.50803 7.38902 2.92244
rclavicle 3.97569e-014 4.77083e-015
rhumerus -11.9693 45.3913 -94.1206
rradius 116.271
rwrist -11.4432
rhand -41.8124 3.7245
rfingers 7.12502
rthumb -14.7145 -25.7333
lclavicle 3.97569e-014 4.77083e-015
lhumerus -3.90208 -18.8665 86.9044
lradius 38.9586
lwrist -3.94151
lhand -26.3897 7.61431
lfingers 7.12502
lthumb 0.1694 37.594
rfemur -20.9452 12.1037 17.4574
rtibia 24.5281
rfoot -17.3655 -25.1191
rtoes 5.051
lfemur -15.066 -2.84155 -5.17035
ltibia 21.1518
lfoot -15.2177 11.675
ltoes -6.45624
3412
root -8.18209 18.8243 0.592138 -349.474 59.7191 359.661
lowerback 9.37587 -1.49084 -3.17508
upperback 4.38142 -2.16129 -3.87173
thorax -0.734562 -1.02368 -2.00928
lowerneck -7.49948 10.6723 -5.26718
upperneck 27.4412 16.3668 0.768992
head 9.41992 7.27484 2.72755
rclavicle -3.49861e-014 -1.90833e-014
rhumerus -12.012 45.0478 -93.961
rradius 116.006
rwrist -11.9569
rhand -42.2712 3.41158
rfingers 7.12502
rthumb -15.1564 -26.0134
lclavicle -3.49861e-014 -1.90833e-014
lhumerus -4.02663 -18.5134 87.2158
lradius 38.8053
lwrist -4.46469
lhand -26.5205 7.60317
lfingers 7.12502
lthumb 0.0429974 37.5829
rfemur -21.2585 11.8577 16.4954
rtibia 24.7502
rfoot -17.4833 -25.1537
rtoes 4.71658
lfemur -15.4138 -3.02144 -6.16628
ltibia 20.8755
lfoot -14.6978 11.6087
ltoes -7.1694
3413
root -8.13241 18.8185 0.516779 -349.064 59.9315 360.008
lowerback 9.39627 -1.4223 -3.27857
upperback 4.35069 -2.08132 -3.91245
thorax -0.774019 -0.983696 -2.00049
lowerneck -7.3038 10.4626 -5.02574
upperneck 27.4181 16.0659 0.604828
head 9.42088 7.14713 2.6016
rclavicle 1.90833e-014 2.8625e-014
rhumerus -12.2558 44.4671 -94.1244
rradius 115.827
rwrist -12.4372
rhand -42.922 3.16611
rfingers 7.12502
rthumb -15.7833 -26.2104
lclavicle 1.90833e-014 2.8625e-014
lhumerus -4.28331 -18.5014 87.4082
lradius 38.6793
lwrist -4.60343
lhand -26.4717 7.59087
lfingers 7.12502
lthumb 0.0901776 37.5706
rfemur -21.4049 11.4504 16.0345
rtibia 24.9406
rfoot -17.4334 -25.0384
rtoes 4.12209
lfemur -15.71 -2.88486 -6.81818
ltibia 20.8544
lfoot -14.1435 11.1675
ltoes -0.366903
3414
root -8.08414 18.8065 0.446294 -349.551 60.0353 359.413
lowerback 9.41396 -1.35149 -3.02818
upperback 4.37155 -1.96729 -3.80892
thorax -0.766577 -0.92593 -2.04429
lowerneck -7.42576 10.3104 -5.13832
upperneck 27.6742 15.8573 0.808383
head 9.51099 7.05039 2.68817
rclavicle -5.64548e-014 -6.04305e-014
rhumerus -12.3726 44.1054 -94.1705
rradius 115.74
rwrist -12.9737
rhand -43.1607 2.91647
rfingers 7.12502
rthumb -16.0131 -26.4417
lclavicle -5.64548e-014 -6.04305e-014
lhumerus -4.61285 -18.3861 87.5134
lradius 38.7186
lwrist -4.69688
lhand -26.3906 7.72115
lfingers 7.12502
lthumb 0.168482 37.7008
rfemur -21.454 11.3381 16.0839
rtibia 25.0492
rfoot -17.4037 -24.979
rtoes 3.83435
lfemur -15.9423 -2.45991 -7.02823
ltibia 21.1396
lfoot -13.7328 10.22
ltoes 6.18307
3415
root -8.03285 18.7939 0.375321 -350.145 60.0875 358.791
lowerback 9.47039 -1.30606 -2.85514
upperback 4.43512 -1.89149 -3.63474
thorax -0.731022 -0.888767 -1.96763
lowerneck -7.50052 10.2306 -5.42048
upperneck 27.8047 15.7594 1.00556
head 9.53201 6.99456 2.79602
rclavicle -1.19271e-014 -2.38542e-014
rhumerus -12.37 44.0581 -94.0135
rradius 115.739
rwrist -13.4974
rhand -42.9705 2.80741
rfingers 7.12502
rthumb -15.83 -26.5654
lclavicle -1.19271e-014 -2.38542e-014
lhumerus -4.98379 -18.1859 87.5988
lradius 38.9518
lwrist -4.73585
lhand -26.195 8.13685
lfingers 7.12502
lthumb 0.357444 38.1163
rfemur -21.3636 11.4706 16.1325
rtibia 25.0733
rfoot -17.3459 -25.1846
rtoes 3.22894
lfemur -16.1576 -1.92327 -7.27505
ltibia 21.6828
lfoot -14.8091 12.4117
ltoes 2.61196
3416
root -7.97751 18.7809 0.300981 -350.657 60.1607 358.221
lowerback 9.44823 -1.2575 -2.63182
upperback 4.50998 -1.80313 -3.45405
thorax -0.642 -0.845154 -1.91557
lowerneck -7.60205 10.1231 -5.65401
upperneck 27.9222 15.6584 1.04839
head 9.57406 6.92449 2.84906
rclavicle 4.6118e-014 6.36111e-015
rhumerus -12.3083 43.9987 -93.7366
rradius 115.812
rwrist -13.9207
rhand -42.6357 3.06692
rfingers 7.12502
rthumb -15.5075 -26.3312
lclavicle 4.6118e-014 6.36111e-015
lhumerus -5.35874 -18.0926 87.7446
lradius 39.3204
lwrist -4.75184
lhand -26.2011 8.49932
lfingers 7.12502
lthumb 0.351536 38.4788
rfemur -21.2642 11.4792 16.1547
rtibia 25.0423
rfoot -17.2359 -25.3438
rtoes 2.55059
lfemur -16.5268 -1.07224 -7.63179
ltibia 22.3232
lfoot -15.406 15.5447
ltoes -4.65434
3417
root -7.92343 18.7688 0.223989 -350.897 60.2363 357.925
lowerback 9.46561 -1.20707 -2.50055
upperback 4.53371 -1.72502 -3.31737
thorax -0.626036 -0.806703 -1.85506
lowerneck -7.71555 9.98671 -5.87655
upperneck 28.0951 15.5333 1.06138
head 9.64389 6.83846 2.89318
rclavicle -6.83819e-014 9.54166e-015
rhumerus -12.3331 43.959 -93.5301
rradius 115.97
rwrist -14.2776
rhand -42.6901 2.7682
rfingers 7.12502
rthumb -15.5599 -26.6258
lclavicle -6.83819e-014 9.54166e-015
lhumerus -5.83411 -18.0627 87.9033
lradius 39.8766
lwrist -4.77991
lhand -26.2329 8.40925
lfingers 7.12502
lthumb 0.320827 38.3888
rfemur -21.1815 11.6786 15.9646
rtibia 24.9679
rfoot -17.2952 -25.5679
rtoes 2.51418
lfemur -16.9475 -0.0680418 -8.14653
ltibia 22.8966
lfoot -14.5342 14.7055
ltoes -2.15577
